<svg width="30" height="30" viewBox="0 0 30 30" fill="none" xmlns="http://www.w3.org/2000/svg">
<path d="M20 20L15 15L10 20" stroke="#2851E3" stroke-width="2" stroke-linecap="round" stroke-linejoin="round"/>
<path d="M15 15V26.25" stroke="#2851E3" stroke-width="2" stroke-linecap="round" stroke-linejoin="round"/>
<path d="M25.4875 22.9875C26.7067 22.3228 27.6698 21.2711 28.2248 19.9983C28.7799 18.7254 28.8953 17.304 28.5528 15.9583C28.2102 14.6127 27.4294 13.4194 26.3333 12.5668C25.2373 11.7142 23.8886 11.2509 22.5 11.25H20.925C20.5466 9.78653 19.8415 8.4279 18.8624 7.27622C17.8834 6.12454 16.6561 5.20979 15.2726 4.60074C13.8892 3.99169 12.3857 3.70418 10.8751 3.75983C9.3646 3.81549 7.88633 4.21286 6.55147 4.92206C5.21661 5.63127 4.05989 6.63386 3.16828 7.85446C2.27667 9.07506 1.67336 10.4819 1.40372 11.9692C1.13409 13.4565 1.20513 14.9856 1.61152 16.4416C2.0179 17.8975 2.74905 19.2423 3.75 20.375" stroke="#2851E3" stroke-width="2" stroke-linecap="round" stroke-linejoin="round"/>
<path d="M20 20L15 15L10 20" stroke="#2851E3" stroke-width="2" stroke-linecap="round" stroke-linejoin="round"/>
</svg>
